<?xml version="1.0" standalone="no"?>
<!DOCTYPE svg PUBLIC "-//W3C//DTD SVG 20010904//EN"
 "http://www.w3.org/TR/2001/REC-SVG-20010904/DTD/svg10.dtd">
<svg version="1.0" xmlns="http://www.w3.org/2000/svg"
 width="2000.000000pt" height="2000.000000pt" viewBox="0 0 2000.000000 2000.000000"
 preserveAspectRatio="xMidYMid meet">

<rect width="100%" height="100%" fill="#FFFFFF"/>

<g transform="translate(0.000000,2000.000000) scale(0.100000,-0.100000)"
fill="#000000" stroke="none">
<path d="M0 9960 l0 -9960 10000 0 10000 0 0 9960 0 9960 -10000 0 -10000 0 0
-9960z m12845 5387 c50 -15 119 -42 155 -59 83 -40 177 -133 214 -211 56 -120
56 -110 56 -1138 0 -933 0 -948 -21 -1015 -46 -151 -127 -257 -236 -311 l-58
-28 -935 -1 c-1355 -1 -1518 -14 -1720 -134 -390 -231 -776 -724 -876 -1118
-23 -91 -26 -126 -39 -572 -9 -261 -19 -515 -23 -563 l-7 -88 -1305 -1204
-1305 -1205 -6 2193 c-3 1205 -2 2266 3 2357 21 419 98 844 214 1188 357 1056
1123 1702 2279 1921 96 18 170 19 1810 18 l1710 -2 90 -28z m-1867 -6175 l691
-572 21 -58 c42 -111 52 -171 48 -271 -3 -69 -10 -109 -25 -143 -28 -62 -102
-140 -173 -183 l-58 -35 -1061 0 -1060 0 -3 -1297 -3 -1298 -23 -80 c-50 -179
-140 -304 -267 -372 -123 -65 -93 -63 -1048 -63 l-866 0 -77 40 c-183 95 -282
213 -329 396 -13 51 -15 140 -13 612 l3 551 1760 1684 c1476 1413 1762 1683
1776 1673 8 -6 326 -269 707 -584z m1952 -3621 c294 -92 417 -456 243 -718
-47 -72 -103 -118 -193 -162 -74 -35 -77 -36 -200 -36 -123 0 -126 1 -200 36
-90 44 -146 90 -193 162 -54 81 -79 166 -79 267 0 329 304 549 622 451z"/>
</g>
</svg>

